# xmcd CD database file
#
# Track frame offsets:
#	150
#	21310
#	33792
#	45435
#	63577
#	74250
#	106630
#
# Disc length: 1911 seconds
#
# Revision: 0
# Processed by: cddbd v1.5.1PL2 Copyright (c) Steve Scherf et al.
# Submitted via: CDex 1.51
#
DISCID=51077507
DTITLE=Baby Shambles - FUCK FOREVER
DYEAR=2005
DGENRE=Rock
TTITLE0=Fuck Forever
TTITLE1=Black Boy Lane
TTITLE2=Monkey Casino
TTITLE3=East Of Eden
TTITLE4=Babyshambles
TTITLE5=Forever
TTITLE6=Data
EXTD=YEAR: 2005
EXTT0=
EXTT1=
EXTT2=
EXTT3=
EXTT4=
EXTT5=
EXTT6=
PLAYORDER=
